<svg width="40" height="27" viewBox="0 0 40 27" fill="none" xmlns="http://www.w3.org/2000/svg">
<path d="M34.4643 24.5676V27H5.53571V24.5676H34.4643ZM38.2143 19.4595V7.54054C38.2143 4.71941 36.5354 2.43243 34.4643 2.43243H5.53571C3.46465 2.43243 1.78571 4.71941 1.78571 7.54054V19.4595C1.78571 22.2806 3.46465 24.5676 5.53571 24.5676V27C2.52617 27 0.0774976 23.7286 0.00174386 19.654L0 19.4595V7.54054C1.30245e-07 3.44106 2.40161 0.105564 5.39289 0.00237542L5.53571 0H34.4643L34.6071 0.00237542C37.5984 0.105564 40 3.44106 40 7.54054V19.4595L39.9983 19.654C39.9225 23.7286 37.4738 27 34.4643 27V24.5676C36.5354 24.5676 38.2143 22.2806 38.2143 19.4595Z" fill="black"/>
<path d="M38 4.71221L19.4643 19L2 5.53825L3.17293 2.82604L19.4641 15.3834L36.8271 2L38 4.71221Z" fill="black"/>
</svg>
