<?xml version="1.0" encoding="utf-8"?>
<!-- Generator: Adobe Illustrator 22.0.1, SVG Export Plug-In . SVG Version: 6.00 Build 0)  -->
<svg version="1.1" id="Layer_1" xmlns="http://www.w3.org/2000/svg" xmlns:xlink="http://www.w3.org/1999/xlink" x="0px" y="0px"
	 viewBox="0 0 75 75" style="enable-background:new 0 0 75 75;" xml:space="preserve">
<g id="News_Headline">
	<path d="M19.291317,18.9109173c-0.3017216-0.2876415-0.9201832-0.2155743-1.1533203,0.1054688
		c-0.2856598,0.3933659-0.0730667,0.9018974,0.0234375,2.4472656l-2.4697275,0.2265625l-0.1621094-1.7675781
		c-0.0987377-1.0861206-1.136425-0.9177551-1.4179688-0.5371094c-0.1210938,0.1640625-0.1689453,0.3896484-0.1425781,0.6796875
		c0.5034027,4.844923,0.3310242,5.32304,0.7265625,5.6953125c0.3148718,0.2985134,0.9389868,0.21558,1.1630859-0.1064453
		c0.2820559-0.4039593,0.0683155-0.9000092-0.0361328-2.5361328l2.4697275-0.2265625l0.1699219,1.8623047
		c0.0502796,0.5400448,0.3285789,0.8654842,0.8623047,0.8164063c0.5248451-0.0493965,0.7402763-0.4235916,0.6904297-0.9589844
		C19.5145741,19.7820663,19.6800938,19.2790966,19.291317,18.9109173z"/>
	<path d="M22.5442467,23.835722l-0.125-1.3710938l2.0107422-0.1835938c0.383564-0.0360775,0.591053-0.2721462,0.5488281-0.7265625
		c-0.0370579-0.4187431-0.2572651-0.654232-0.671875-0.6152344l-2.0107422,0.1835938l-0.1162109-1.2666016l2.1972656-0.2011719
		c0.7450409-0.0677319,0.6150589-0.9677925,0.3505859-1.2138672c-0.2896614-0.2693329-0.583189-0.0687943-3.3496094,0.1347656
		c-0.265625,0.0244141-0.4609375,0.1210938-0.5859375,0.2871094c-0.3220119,0.4361095-0.0799484,0.7281628,0.2998047,5.5546875
		c0.0511169,0.5604057,0.3470135,0.873745,0.8964844,0.8232422c2.8220081-0.3082428,3.088295-0.1623878,3.3183594-0.4765625
		c0.1819897-0.2420082,0.1411419-0.7742157-0.0908203-0.9960938C25.103817,23.6609173,24.6191196,23.6940193,22.5442467,23.835722z"
		/>
	<path d="M28.369442,17.851347c-0.4486866,0.0412064-0.6927261,0.3631935-0.8251953,0.7900391
		c-1.6239147,5.3395386-1.7966003,5.369379-1.6748047,5.8105469c0.0896454,0.3300629,0.3699341,0.4851456,0.7089844,0.453125
		c0.667799-0.0593605,0.6521034-0.5889549,0.947937-1.5344238l2.6671143-0.2443848l0.3400269,0.6928711
		c0.2816811,0.5749073,0.5397282,0.6752987,0.9140625,0.6396484c0.5319633-0.0458584,0.7741699-0.5297241,0.4462891-1.1064453
		C29.1503582,18.2705536,29.1921005,17.7761803,28.369442,17.851347z M28.5266685,19.7517376l0.0166016-0.0009766
		l1.0195313,2.0883179l-1.6513672,0.1515503L28.5266685,19.7517376z"/>
	<path d="M34.6301842,17.3620892l-1.6621094,0.1523438c-0.5593987,0.0512276-0.7826462,0.4220505-0.7324219,0.9726563
		c0.6979027,6.679245-0.1158028,5.7125397,3.0048828,5.5400391c2.1273689-0.1955738,3.1475105-1.5720024,2.9609375-3.6357422
		C38.0070724,18.2840996,36.7289772,17.1691418,34.6301842,17.3620892z M34.1956139,22.7029095l-0.3525391-3.8476563
		c0.4736366,0.0811882,2.50877-0.7993183,2.7382813,1.6845703C36.8105812,23.024334,34.6177483,22.5473461,34.1956139,22.7029095z"
		/>
	<path d="M40.8606529,22.054472c-0.4517136-4.2839413-0.2806473-4.6243916-0.6572266-4.9833984
		c-0.3593674-0.3379498-1.3974953-0.2796059-1.3027344,0.7773438c0.5104065,4.8757668,0.3186035,5.1703644,0.7177734,5.5439453
		c0.3895912,0.3621197,0.7704086,0.0996151,3.4443359-0.0820313c0.7981148-0.0725555,0.6941795-1.028038,0.3808594-1.3076172
		C43.1253586,21.7235889,42.8104782,21.9250011,40.8606529,22.054472z"/>
	<path d="M44.0003014,16.6472454c-0.3196716,0.4331036-0.0673027,0.8417473,0.3212891,5.7373047
		c0.0494652,0.5312977,0.3302002,0.866394,0.8613281,0.8164063c0.5338516-0.047987,0.7503357-0.4099312,0.6992188-0.9589844
		l-0.4628906-5.0576172C45.3213005,16.1069565,44.2898483,16.2588844,44.0003014,16.6472454z"/>
	<path d="M50.5198326,16.032011c-0.2741623,0.3720741-0.0658607,0.7323227,0.156189,3.7119141
		c-3.0439873-3.4845181-2.9816055-3.6637363-3.5731812-3.609375c-0.3649597,0.0349236-0.6561089,0.3153992-0.6005859,0.921875
		c0.5264244,5.119318,0.3585892,5.4181061,0.7158203,5.75c0.2749596,0.2553196,0.86129,0.2025661,1.0810547-0.0996094
		c0.2737732-0.3773651,0.0642776-0.7428131-0.1572266-3.7219238c2.744175,3.1374321,2.8283119,3.3481941,3.1523438,3.5383301
		c0.2247467,0.1329746,0.7006493,0.1302128,0.9033203-0.1787109c0.2620735-0.3982487,0.0714798-0.4960213-0.3632813-5.8232422
		C51.7459259,15.519846,50.7680206,15.685441,50.5198326,16.032011z"/>
	<path d="M54.8430748,20.8777142l-0.125-1.3710938c1.9289894-0.2232227,2.216877-0.0918427,2.4482422-0.3955078
		c0.1887207-0.2432003,0.1446533-0.7893448-0.0917969-1.0019531c-0.2838326-0.2595711-0.5779953-0.0730915-2.4794922,0.0556641
		L54.478817,16.898222c2.0952873-0.2400341,2.4137001-0.104557,2.6396484-0.4179688
		c0.1785355-0.2476463,0.1422577-0.7813339-0.0917969-0.9970703c-0.2874069-0.2697582-0.6090279-0.0678701-3.3496094,0.1337891
		c-0.5594559,0.0514202-0.7826462,0.4230118-0.7324219,0.9736328l0.4462891,4.8691406
		c0.050312,0.551569,0.3404236,0.8733749,0.8964844,0.8222656c2.82201-0.3082428,3.0861893-0.1610336,3.3183594-0.4755859
		c0.1822739-0.2443237,0.1407585-0.776598-0.0908203-0.9960938C57.4026451,20.7019329,56.9421463,20.7335587,54.8430748,20.8777142z
		"/>
	<path d="M59.6116295,17.0759563c-0.0791435-0.8279419,1.3432732-0.9035492,2.0996094-0.6113281
		c0.9138527,0.3274231,1.1353874-0.9563751,0.4296875-1.2890625c-1.5481033-0.8226328-4.248188-0.0293674-4.0488281,2.125
		c0.1895828,2.0571747,2.3930588,1.6757927,2.7978516,1.8789063c0.3730621,0.0534859,0.7315102,0.1382618,0.7666016,0.5117188
		c0.0767784,0.859911-1.6868706,0.7748432-2.4833984,0.4472656c-0.6771507-0.2654743-1.0450706,0.5478401-0.7392578,1.0830078
		c0.5651779,0.9816246,4.9917908,1.0486794,4.7363281-1.8125C62.9404602,16.9315166,59.7071381,18.1583748,59.6116295,17.0759563z"
		/>
	<path d="M65.9778366,46.4255638l-19.4414024,1.7197266c-0.4121094,0.0361328-0.7167969,0.4003906-0.6806641,0.8134766
		c0.0356522,0.4064331,0.3945351,0.7170944,0.8134766,0.6806641l19.4414024-1.7197266
		c0.4121094-0.0361328,0.7167969-0.4003906,0.6806641-0.8134766S66.3792038,46.3855247,65.9778366,46.4255638z"/>
	<path d="M65.9778366,51.5808372l-18.9882774,1.6796875c-0.4121094,0.0361328-0.7167969,0.4003906-0.6806641,0.8134766
		c0.0356522,0.4064331,0.3945351,0.7170944,0.8134766,0.6806641l18.9882774-1.6796875
		c0.4121094-0.0361328,0.7167969-0.4003906,0.6806641-0.8134766C66.7551804,51.8493919,66.3792038,51.5427513,65.9778366,51.5808372
		z"/>
	<path d="M64.874321,36.2116966l-19.2421837,1.7021484c-0.4121094,0.0366211-0.7167969,0.4003906-0.6806641,0.8129883
		c0.0358887,0.4096718,0.3972054,0.71735,0.8134766,0.6811523l19.2421837-1.7021484
		c0.4121094-0.0366211,0.7167969-0.4003906,0.6806641-0.8129883C65.6516647,36.479763,65.2756882,36.1760521,64.874321,36.2116966z"
		/>
	<path d="M65.7405319,41.2907982l-19.6562462,1.7382813c-0.4121094,0.0361328-0.7167969,0.4003906-0.6806641,0.8134766
		c0.0356522,0.4064331,0.3945351,0.7170944,0.8134766,0.6806641l19.6562462-1.7382813
		c0.4121094-0.0361328,0.7167969-0.4003906,0.6806641-0.8134766C66.5178757,41.5588646,66.1409225,41.2541771,65.7405319,41.2907982
		z"/>
	<path d="M58.7620201,31.5969524l-13.5830078,1.2016582c-0.4121094,0.0366211-0.7167969,0.4003906-0.6806641,0.8129883
		c0.0358887,0.4096718,0.3972054,0.71735,0.8134766,0.6811523l13.5830078-1.2016602
		c0.4121094-0.0366211,0.7167969-0.4003906,0.6806641-0.8129883C59.5383873,31.8645306,59.1643639,31.5569134,58.7620201,31.5969524
		z"/>
	<path d="M63.721981,10.0408001L12.204402,14.235136c-1.4344559,0.1169605-2.6123857,1.3699417-2.4433594,2.9921875
		l4.2900391,41.3330078c0.6565542,6.2655602-4.6997118,6.6940804-4.9707031,0.3964844L6.2551837,29.835722
		c-0.0774403-0.8349018,1.0251665-0.718689,2.3134761-0.9282227c0.9822807-0.1353264,0.7782049-1.6183567-0.2050781-1.4853516
		l-1.6699214,0.2319336c-1.1732612,0.1038189-2.0460782,1.1442089-1.9306641,2.3256836l2.8222656,29.0805645
		c0.3443093,8.2832909,8.8243866,7.6632195,7.9580073-0.6552734l-2.944519-28.3676739l53.0357018-4.5960083
		c0.6231689,3.621521,1.3238525,6.4163818,1.3824463,6.6462994c2.6835938,11.9462891,1.6630859,19.4833984,0.8154297,22.9130859
		c-0.2910156,1.1806641-1.3154297,2.0625-2.5498047,2.1943359l-48.0341759,5.2353516
		c-0.4121094,0.0439453-0.7089844,0.4150391-0.6640625,0.8261719c0.0439453,0.4130859,0.4267578,0.7216797,0.8261719,0.6640625
		l48.0322227-5.234375c1.8583984-0.1982422,3.4033203-1.5351563,3.8466797-3.3261719
		c0.8789063-3.5576172,1.9423828-11.3544922-0.8134766-23.6210918c-0.03125-0.1210938-3.0605469-12.2055664-2.1494141-18.9116211
		C66.5397873,11.2621012,65.2786407,9.9135132,63.721981,10.0408001z M12.4439039,28.5454998l-1.1955566-11.5178833
		c-0.0687428-0.6591225,0.4182701-1.243804,1.0771484-1.2973633l51.5185547-4.1943359
		c0.5798454-0.0593939,1.0817223,0.4629698,0.9960899,1.0888672c-0.4417114,3.2521973-0.0288696,7.5809937,0.5516968,11.3322754
		L12.4439039,28.5454998z"/>
	<path d="M37.197567,31.2458782l-19.0322266,1.741209c-0.8847294,0.0814362-1.5393753,0.860981-1.4580078,1.7519531
		l1.0761719,11.7607422c0.0785694,0.8503571,0.8233891,1.5323715,1.7529297,1.4580078
		c4.227253-0.3867188-10.3662605,0.9483376,19.0332031-1.7412109c0.8857422-0.0820313,1.5390625-0.8681641,1.4570313-1.7519531
		l-1.0771484-11.7602539C38.8684998,31.816206,38.0896072,31.1700039,37.197567,31.2458782z M29.7571373,36.2829857
		l3.234375-0.2958984l0.8312378,9.1570435l-3.2335815,0.2958374L29.7571373,36.2829857z M35.3167076,45.007473l-0.8398438-9.2572021
		c-0.0712891-0.7685547-0.7685547-1.3325195-1.5224609-1.2661133l-3.4335938,0.3144531
		c-0.7675781,0.0712891-1.3359375,0.753418-1.2666016,1.5219727l0.8410034,9.2561035l-4.0835571,0.3735962l-0.4244385-5.4602661
		l1.8408203-0.1669922c0.4121094-0.0375977,0.7158203-0.4023438,0.6787109-0.8149414s-0.3984375-0.7177734-0.8154297-0.6791992
		l-1.9384766,0.1762695c-0.7895069,0.0723381-1.3364697,0.7731323-1.2685547,1.512207l0.4328003,5.5696411
		c-4.1219006,0.3276558-4.2224045,0.4897461-4.2394409,0.2750854l-1.0761719-11.7597656
		c0-0.0004883,0.1005859-0.1210938,0.1005859-0.1210938l19.0322266-1.7412109l0.1210938,0.1005859l1.0771484,11.7617188
		C38.5529671,44.8135414,38.3225288,44.6859589,35.3167076,45.007473z"/>
	<path d="M39.8254967,49.6423607l-20.7744141,2.1210938c-0.4121094,0.0419922-0.7119141,0.4101563-0.6699219,0.8222656
		c0.0427742,0.4224052,0.42733,0.7154922,0.8222656,0.6699219l20.7744141-2.1210938
		c0.4121094-0.0419922,0.7119141-0.4101563,0.6699219-0.8222656C40.6057701,49.9011497,40.2297935,49.5993919,39.8254967,49.6423607
		z"/>
	<path d="M19.7551842,56.8816185c-0.4121094,0.046875-0.7070313,0.4189453-0.6601563,0.8300781
		c0.0455227,0.396553,0.3983555,0.7048187,0.8300781,0.6601563l20.4960938-2.3476563
		c0.4121094-0.046875,0.7070313-0.4189453,0.6601563-0.8300781s-0.4199219-0.6962891-0.8300781-0.6601563L19.7551842,56.8816185z"/>
</g>
</svg>
