<?xml version="1.0" encoding="utf-8"?>
<!-- Generator: Adobe Illustrator 26.3.1, SVG Export Plug-In . SVG Version: 6.00 Build 0)  -->
<svg version="1.1" id="Layer_1" xmlns="http://www.w3.org/2000/svg" xmlns:xlink="http://www.w3.org/1999/xlink" x="0px" y="0px"
	 viewBox="0 0 1000 1000" style="enable-background:new 0 0 1000 1000;" xml:space="preserve">
<g>
	<path d="M176.95,694.64h672.87c3.45,0,6.26-2.8,6.26-6.26V265.85c0-16.92-13.71-30.63-30.63-30.63h-620.8
		c-18.75,0-33.96,15.2-33.96,33.96v419.21C170.7,691.83,173.5,694.64,176.95,694.64z M201.7,269.17c0-1.63,1.33-2.96,2.96-2.96
		h620.43v397.42H201.7V269.17z"/>
	<path d="M630.77,717.55c-3.46,11.21-13.9,19.35-26.25,19.35H421.01c-12.34,0-22.78-8.14-26.25-19.35H107.03v0
		c0,31.72,25.71,57.43,57.43,57.43h697.87c31.72,0,57.43-25.71,57.43-57.43v0H630.77z"/>
	<path d="M567.93,480.11l56-28.79c4.97-2.55,4.18-9.88-1.21-11.32l-155.39-41.64c-4.54-1.22-8.69,2.94-7.48,7.48l41.53,155
		c1.46,5.44,8.88,6.17,11.37,1.12l27.17-55.11l70.66,69.79c7.6,7.51,19.86,7.43,27.37-0.17h0c7.51-7.6,7.43-19.86-0.17-27.36
		L567.93,480.11z"/>
</g>
</svg>
